# xmcd
#
# Track frame offsets: 
#        150
#        21528
#        47471
#        64770
#        85896
#        97779
#        112045
#        135069
#        145037
#        164925
#        185557
#        202179
#
# Disc length: 2818 seconds
#
# Revision: 1
# Processed by: cddbd v1.5.2PL0 Copyright (c) Steve Scherf et al.
# Submitted via: ExactAudioCopy v0.99pb4
#
DISCID=a70b000c
DTITLE=Mina Agossi - Carrousel
DYEAR=2003
DGENRE=Jazz
TTITLE0=Vesoncio
TTITLE1=3rd Stone From The Sun
TTITLE2=The End Of A Love Affair
TTITLE3=Identity
TTITLE4=Closer To Me
TTITLE5=Undecided
TTITLE6=Gipsy Boy
TTITLE7=No Conversion
TTITLE8=Carrousel
TTITLE9=Ain't Got Enough
TTITLE10=Non Sense
TTITLE11=Freedom Song
EXTD=YEAR: 2003
EXTT0=
EXTT1=
EXTT2=
EXTT3=
EXTT4=
EXTT5=
EXTT6=
EXTT7=
EXTT8=
EXTT9=
EXTT10=
EXTT11=
PLAYORDER=
